<?xml version="1.0" encoding="utf-8"?>
<!-- Generator: Adobe Illustrator 23.0.5, SVG Export Plug-In . SVG Version: 6.00 Build 0)  -->
<svg version="1.1" id="Fondo_1_" xmlns="http://www.w3.org/2000/svg" xmlns:xlink="http://www.w3.org/1999/xlink" x="0px" y="0px"
	 width="96.7px" height="96.7px" viewBox="0 0 96.7 96.7" style="enable-background:new 0 0 96.7 96.7;" xml:space="preserve">
<style type="text/css">
	.st0{fill:#0F69B4;}
	.st1{fill:#EB3C46;}
	.st2{fill:#FFFFFF;}
	.st3{fill:none;}
</style>
<g>
	<g>
		<g>
			<rect class="st0" width="43.5" height="96.7"/>
			<rect x="43.5" class="st1" width="53.2" height="96.7"/>
		</g>
		<g>
			<path class="st2" d="M54.5,14.9c-1,0.5-1.8,0.7-2.8,0.7c-2.2,0-3.3-1.6-3.3-3.9c0-2.3,1.1-3.8,3.4-3.8c1.1,0,1.9,0.3,2.4,0.7
				l-0.6,1.1c-0.4-0.3-1-0.5-1.8-0.5c-1.3,0-1.9,1-1.9,2.5c0,1.8,0.6,2.7,1.9,2.7c0.5,0,1-0.1,1.3-0.3v-1.4h-1L52,11.7h2.4
				L54.5,14.9L54.5,14.9z"/>
			<path class="st2" d="M60.5,12.8c0,1.8-0.9,2.8-2.5,2.8s-2.5-1-2.5-2.8c0-1.6,0.9-2.8,2.5-2.8C59.6,10,60.5,11.2,60.5,12.8
				 M59,12.8c0-1.3-0.4-1.8-1.1-1.8c-0.7,0-1,0.5-1,1.8c0,1.3,0.3,1.8,1,1.8C58.6,14.5,59,14.1,59,12.8"/>
			<path class="st2" d="M62.9,10.7c0.3-0.3,0.8-0.7,1.4-0.7c1.3,0,2.2,0.9,2.2,2.8c0,1.9-1.1,2.8-2.3,2.8c-0.8,0-1.2-0.3-1.6-0.8
				l-0.3,0.6h-0.8V7.9H63v1.9L62.9,10.7z M63,14c0.2,0.3,0.6,0.6,1,0.6c0.6,0,1.1-0.5,1.1-1.8c0-1.3-0.4-1.7-1.1-1.7
				c-0.4,0-0.8,0.2-1,0.4L63,14L63,14z"/>
			<path class="st2" d="M68,15.5v-4.3L67.4,11v-0.9h2v5.4H68z M68,7.9h1.4v1.3H68V7.9z"/>
			<path class="st2" d="M72,13.2c0,0.9,0.5,1.3,1.4,1.3c0.6,0,1.1-0.2,1.6-0.5l0.3,1c-0.4,0.2-1.2,0.5-2,0.5c-1.7,0-2.7-1-2.7-2.8
				c0-1.7,0.8-2.8,2.5-2.8c1.6,0,2.3,1.2,2.3,2.6v0.6L72,13.2L72,13.2z M73,11.1c-0.7,0-1,0.6-1,1.3h2C73.9,11.6,73.7,11.1,73,11.1"
				/>
			<path class="st2" d="M79.4,11.3c-0.2-0.1-0.4-0.1-0.7-0.1c-0.4,0-0.7,0.2-1,0.4v3.9h-1.4v-5.4h1c0.1,0.3,0.1,0.5,0.2,0.7h0
				c0.2-0.4,0.7-0.8,1.3-0.8c0.3,0,0.5,0,0.6,0.1C79.5,10.5,79.5,10.9,79.4,11.3"/>
			<path class="st2" d="M83.7,15.5v-3.2c0-0.8-0.3-1.2-1-1.2c-0.4,0-0.7,0.2-0.9,0.3v4.1h-1.4v-5.4h1l0.2,0.6
				c0.3-0.4,0.9-0.7,1.7-0.7c1.4,0,1.9,0.8,1.9,2.2v3.3C85.1,15.5,83.7,15.5,83.7,15.5z"/>
			<path class="st2" d="M91.1,12.8c0,1.8-0.9,2.8-2.5,2.8s-2.5-1-2.5-2.8c0-1.6,0.9-2.8,2.5-2.8C90.2,10,91.1,11.2,91.1,12.8
				 M89.7,12.8c0-1.3-0.4-1.8-1.1-1.8c-0.7,0-1,0.5-1,1.8c0,1.3,0.3,1.8,1,1.8S89.7,14.1,89.7,12.8"/>
			<path class="st2" d="M52.1,20.3C52,20,52,19.7,52,19.3v-1.6h1.4v7.6h-1.2l-0.2-0.6c-0.2,0.3-0.7,0.7-1.4,0.7
				c-1.2,0-2.2-0.9-2.2-2.8c0-1.8,1-2.8,2.3-2.8C51.3,19.8,51.8,20,52.1,20.3 M52,21.1c-0.2-0.1-0.6-0.3-1-0.3
				c-0.7,0-1.1,0.5-1.1,1.7c0,1.3,0.4,1.8,1.1,1.8c0.4,0,0.7-0.2,1-0.5V21.1z"/>
			<path class="st2" d="M55.9,22.9c0,0.9,0.5,1.3,1.4,1.3c0.6,0,1.1-0.2,1.6-0.5l0.3,1c-0.5,0.2-1.2,0.5-2,0.5c-1.7,0-2.7-1-2.7-2.8
				c0-1.7,0.8-2.8,2.5-2.8c1.6,0,2.3,1.2,2.3,2.6V23L55.9,22.9L55.9,22.9z M56.9,20.8c-0.7,0-1,0.6-1,1.3h2
				C57.9,21.4,57.7,20.8,56.9,20.8"/>
			<path class="st2" d="M65.8,25.4c-2.1,0-3.2-1.4-3.2-3.9c0-2.3,1.1-3.8,3.2-3.8c1,0,1.9,0.2,2.5,0.6l-0.6,1.1
				c-0.4-0.3-1.1-0.5-1.8-0.5c-1.2,0-1.8,0.9-1.8,2.5c0,1.7,0.6,2.6,1.8,2.6c0.7,0,1.4-0.3,1.9-0.7l0.5,1.1
				C67.6,25.1,66.8,25.4,65.8,25.4"/>
			<path class="st2" d="M69.3,25.3v-7.6h1.4v2c0,0.4-0.1,0.8-0.1,0.8c0.3-0.4,0.8-0.7,1.5-0.7c1.6,0,2,0.8,2,2.2v3.3h-1.5V22
				c0-0.1,0-0.3-0.1-0.3c0-0.6-0.3-0.9-0.9-0.9c-0.4,0-0.7,0.2-0.9,0.3v4.1L69.3,25.3L69.3,25.3z"/>
			<path class="st2" d="M75.8,25.3v-4.3l-0.6-0.1v-0.9h2v5.4H75.8z M75.7,17.7h1.4V19h-1.4V17.7z"/>
			<path class="st2" d="M78.5,23.8v-6.1h1.4v6.1c0,0.5,0.3,0.5,0.9,0.5v1c0,0-0.4,0.1-0.8,0.1C78.9,25.4,78.5,24.8,78.5,23.8"/>
			<path class="st2" d="M82.9,22.9c0,0.9,0.5,1.3,1.4,1.3c0.6,0,1.1-0.2,1.6-0.5l0.3,1c-0.4,0.2-1.2,0.5-2,0.5c-1.7,0-2.7-1-2.7-2.8
				c0-1.7,0.8-2.8,2.5-2.8c1.6,0,2.3,1.2,2.3,2.6V23L82.9,22.9L82.9,22.9z M83.9,20.8c-0.7,0-1,0.6-1,1.3h2
				C84.9,21.4,84.7,20.8,83.9,20.8"/>
		</g>
		<g>
			<path class="st2" d="M51.4,87.6h0.7v4c0,1.1-0.7,1.8-2,1.8c-0.7,0-1.3-0.2-1.6-0.4l0.3-0.8c0.3,0.2,0.8,0.4,1.3,0.4
				c0.6,0,1-0.3,1-0.9l0-0.3c-0.2,0.2-0.6,0.5-1.1,0.5c-0.9,0-1.7-0.7-1.7-2.1c0-1.3,0.8-2.1,1.8-2.1c0.5,0,0.9,0.2,1.1,0.4
				L51.4,87.6z M51,88.6c-0.2-0.1-0.4-0.2-0.7-0.2c-0.5,0-0.9,0.3-0.9,1.3c0,1,0.3,1.3,0.8,1.3c0.3,0,0.5-0.1,0.8-0.3L51,88.6
				L51,88.6z"/>
			<path class="st2" d="M56.8,89.7c0,1.4-0.7,2.1-1.9,2.1c-1.2,0-1.9-0.7-1.9-2.1c0-1.2,0.7-2.1,1.9-2.1
				C56.1,87.6,56.8,88.5,56.8,89.7 M55.6,89.7c0-1-0.3-1.3-0.8-1.3S54,88.7,54,89.7c0,0.9,0.3,1.3,0.8,1.3
				C55.4,91,55.6,90.6,55.6,89.7"/>
			<path class="st2" d="M58.6,88.1c0.2-0.3,0.6-0.5,1.1-0.5c1,0,1.7,0.7,1.7,2.1c0,1.4-0.8,2.1-1.8,2.1c-0.6,0-0.9-0.2-1.2-0.6
				l-0.2,0.5h-0.6V86h1.1v1.4L58.6,88.1z M58.7,90.6c0.2,0.2,0.4,0.4,0.8,0.4c0.5,0,0.8-0.3,0.8-1.3c0-1-0.3-1.3-0.8-1.3
				c-0.3,0-0.6,0.1-0.8,0.3L58.7,90.6L58.7,90.6z"/>
			<rect x="62" y="90.5" class="st2" width="1.1" height="1.2"/>
			<path class="st2" d="M67.2,91.4c-0.2,0.1-0.8,0.4-1.4,0.4c-1.2,0-2-0.7-2-2.1c0-1.3,0.7-2.1,1.9-2.1c0.5,0,1,0.1,1.4,0.3
				l-0.3,0.7c-0.3-0.2-0.7-0.3-1-0.3c-0.6,0-0.9,0.4-0.9,1.3c0,0.9,0.3,1.3,0.9,1.3c0.4,0,0.8-0.2,1.1-0.3L67.2,91.4z"/>
			<path class="st2" d="M68,90.6V86H69v4.6c0,0.3,0.2,0.4,0.7,0.4v0.8c0,0-0.3,0.1-0.6,0.1C68.3,91.8,68,91.4,68,90.6"/>
		</g>
	</g>
	<g>
		<g>
			<g>
				<path class="st2" d="M22.7,13.4c0.1-0.1,0.3-0.3,0.1-0.6c-0.1-0.1-0.3-0.2-0.2-0.2c1.1-0.3,1.7-1.9,1.6-2.5
					c0.6,0.5,1.8,0.7,2.7-0.1c0.6-0.6,0.9-2.1-0.1-2.8c-0.5-0.4-1.4-0.4-2,0C24.7,7,24.4,6.8,24,6.8c0-0.1,0-0.8-0.4-1.3
					c-0.5-0.6-2.1-0.6-2.6,0c-1.1-0.3-2.5,0.2-2.5,2c-0.8-0.3-1.2-0.3-1.6-0.3c-0.4,0-0.9,0.4-1.1,0.6c-0.1,0.1-0.2,0.3-0.2,0.4
					c-0.1,0.3-0.2,0.6-0.2,0.9c0.1,0.6,0.4,1.1,0.8,1.4c0.6,0.3,1.4,0.3,1.7,0.3c0.2-0.1,0.4-0.1,0.7-0.4c0.1-0.1,0.1-0.2,0.2-0.2
					c0,0.2-0.1,1,0.9,1.4c0,0,0,0.1,0,0.1c0.3,1.1,1.1,1,1.1,1.1c-0.3,0.2-0.2,0.5-0.1,0.7c0.5-0.2,0.9-0.2,1-0.2
					C21.8,13.3,22.2,13.3,22.7,13.4z"/>
				<g>
					<polygon class="st3" points="21.5,14.6 20.9,16.9 18.4,16.9 18.4,16.9 20.4,18.3 19.6,20.5 21.5,19.1 23.5,20.5 22.7,18.3 
						24.7,16.9 24.7,16.9 22.2,16.9 					"/>
					<path class="st2" d="M25.3,16.9c0-1.1,0.8-2,0.8-2c0.1-0.1,0.1-0.2,0.1-0.3c0-0.1-0.1-0.2-0.1-0.2c-0.2-0.1-0.7-0.4-0.7-0.4
						l0,0h0c0,0-0.1,0-0.2,0.1c-0.1,0.1-0.4,0.3-0.8,0.3c-0.1,0-0.2,0-0.2,0c-0.2,0-0.6-0.2-0.6-0.2c-0.1-0.1-0.3-0.1-0.4-0.2l0,0
						c-0.6-0.3-1.2-0.3-1.3-0.3s-0.7,0-1.3,0.3l0,0c0,0-0.1,0-0.2,0.1l-0.4,0.2c-0.1,0.1-0.3,0.1-0.4,0.1c-0.1,0-0.2,0-0.2,0
						c-0.4,0-0.7-0.2-0.8-0.3c-0.1-0.1-0.1-0.1-0.2-0.1h0l0,0c0,0-0.5,0.3-0.7,0.5c0,0-0.1,0.1-0.1,0.2c0,0.1,0,0.1,0.1,0.2
						c0,0,0.8,0.9,0.8,2c0,0.1,0.1,0.8-0.5,1.8c0,0-0.7,1.2,0,2.3c0,0,0.5,1,2.1,1c0.1,0,1.3,0,1.7,0.8c0,0,0.2,0.3,0.3,0.5l0.1,0.2
						l0.1-0.2c0.1-0.1,0.3-0.4,0.3-0.5c0.4-0.7,1.5-0.7,1.6-0.7c1.5,0,2.1-1,2.1-1c0.7-1.1,0-2.3,0-2.3C25.2,17.7,25.3,17,25.3,16.9
						z M24.7,16.9l-2,1.4l0.8,2.3l-1.9-1.5l-1.9,1.5l0.8-2.3l-2-1.4h0h2.5l0.7-2.3l0.7,2.3L24.7,16.9L24.7,16.9z"/>
					<g>
						<path class="st3" d="M14.9,27.9c1.1,1.1,2.7,0.5,2.7,0.5c0.3,0,0.4-0.8,0.5-1.4c-0.9-0.1-1.9-0.3-2.7-0.5
							C14.9,27.1,14.9,27.9,14.9,27.9z"/>
						<path class="st3" d="M14.6,23.1c0,0-0.1-0.1-0.1-0.1c-0.1,0-0.2,0.1-0.4,0.1c-0.1,0-1.3-0.9-1.3-0.9c-0.2-0.2-0.6-0.4-0.8-0.6
							c-0.1-0.2,0-0.4-0.1-0.6c0-0.1-0.2-0.5-0.5-0.6c-0.1,0.4-0.5,1.6-2,1.9c-0.2,0.8,0.1,2.4,0.3,2.6c0.1,0,0.3,0.1,0.4,0.2
							c0-0.3,0.1-0.5,0.1-0.5c0.4-0.9,1.4-0.6,1.4-0.6c0.4,0.1,0.4,0.4,0.4,0.4c0.1,0.7-0.4,0.7-0.4,0.7c-0.4,0-0.4-0.3-0.4-0.3
							c-0.1-0.3,0.4-0.3,0.4-0.3c-0.4-0.7-1.6,0.4-0.8,1.4c0.1,0.1,0.1,0,0.1,0c2.4-1.2,2.7-1.7,2.7-1.7c0.5-0.4,0.9-0.7,1.2-0.9
							C14.7,23.2,14.6,23.1,14.6,23.1z"/>
						<path class="st3" d="M25.7,13.7c0,0,0.1,0.1,0.1,0.1C25.8,13.8,25.8,13.8,25.7,13.7z"/>
						<path class="st3" d="M26.5,14.3c-0.1-0.1-0.2-0.1-0.3-0.2C26.3,14.2,26.4,14.3,26.5,14.3L26.5,14.3z"/>
						<path class="st3" d="M26,13.9c0.1,0.1,0.1,0.1,0.2,0.2C26.1,14,26,14,26,13.9z"/>
						<path class="st3" d="M14.4,27.4c0.1-0.1,0.2-0.5,0.2-0.5c0.1-0.2,0.1-0.4,0.2-0.6c-0.3-0.1-0.5-0.2-0.8-0.2
							C14.1,26.9,14.4,27.4,14.4,27.4z"/>
						<path class="st3" d="M25.5,26.9c0.1,0.6,0.2,1.4,0.5,1.4c0,0,1.6,0.6,2.7-0.5c0,0-0.1-0.7-0.4-1.4
							C27.4,26.6,26.5,26.8,25.5,26.9z"/>
						<path class="st3" d="M28.9,26.9c0,0,0.1,0.4,0.2,0.5c0,0,0.3-0.6,0.4-1.4c-0.3,0.1-0.5,0.2-0.8,0.2
							C28.8,26.5,28.9,26.7,28.9,26.9z"/>
						<path class="st3" d="M17.2,24.8c-0.5,0-0.9,0.2-1.2,0.5c0.6,0.1,1.3,0.3,2.1,0.4C17.9,24.8,17.2,24.8,17.2,24.8z"/>
						<path class="st3" d="M27.9,25.2c0.5-0.1,0.9-0.2,1.2-0.3c-0.1-0.1-0.1-0.3-0.2-0.4c0,0-1.3-1.6-3.7-0.7c0,0,0.1,0.4,0.8,0.5
							C26,24.3,27.1,24.4,27.9,25.2z"/>
						<path class="st3" d="M26.3,24.8c0,0-0.7,0-0.8,0.9c0.8-0.1,1.5-0.2,2-0.4C27.2,25,26.8,24.8,26.3,24.8z"/>
						<path class="st3" d="M19.6,24.2C19.4,24,19.2,24,19.2,24c-0.4,0-0.4,0.8-0.5,1.8c0.7,0.1,1.5,0.1,2.4,0.2
							C20.7,25.1,19.9,24.6,19.6,24.2z"/>
						<path class="st3" d="M14.6,24.4c-0.1,0.1-0.2,0.3-0.2,0.4c0.3,0.1,0.8,0.2,1.2,0.3c0.9-0.8,1.9-0.9,2-0.9
							c0.7-0.1,0.8-0.5,0.8-0.5C15.9,22.8,14.6,24.4,14.6,24.4z"/>
						<path class="st3" d="M24.3,24c0,0-0.3,0-0.4,0.2c-0.3,0.4-1.1,0.9-1.5,1.7c0.9,0,1.7-0.1,2.4-0.2C24.8,24.8,24.7,24,24.3,24z"
							/>
						<path class="st2" d="M38.6,26.3c-0.3-0.3-0.9-0.1-0.9-0.1c0.4-1.1-0.6-1.3-0.6-1.3c-0.3-0.1-0.6,0-0.7,0.1c0,0,0,0,0,0
							c0,0,0,0,0,0c0,0,0,0-0.1,0.1c-0.1,0.1-0.1,0.2-0.1,0.4c0,0.3,0.2,0.5,0.5,0.5c0.1,0,0.2,0,0.3-0.1c0.1-0.1,0.2-0.2,0.2-0.3
							c0.1,0.1,0.2,0.2,0.2,0.2c0.3,0.9-0.7,1.2-0.7,1.2c-2.2,0.7-3.6-0.5-3.6-0.5l0.4-0.2c0.1-0.1,0.3-0.1,0.3-0.1c0,0,0,0,0,0.1
							c0,0.2,0.2,0.4,0.4,0.4c0.2,0,0.4-0.2,0.4-0.4c0-0.2-0.1-0.3-0.1-0.3c-0.3-0.4-1.2-0.1-1.2-0.1c0.3-0.7,0-1.3,0-1.3
							c-0.4-0.9-1.4-0.6-1.4-0.6c-0.3,0.1-0.4,0.4-0.4,0.4c-0.1,0.7,0.4,0.7,0.4,0.7c0.4,0,0.4-0.3,0.4-0.3c0-0.3-0.4-0.3-0.4-0.3
							c0.4-0.7,1.6,0.4,0.8,1.4c-0.1,0.1-0.2,0-0.2,0c-1.4-0.7-2.1-1.1-2.4-1.4c0-0.4-0.4-0.6-0.3-0.7c0,0,0.3,0.1,0.4-0.1
							c0-0.1,0.1-0.7,0.2-1.1c1.2,0.6,2.3,0.4,2.5,0.3c0.1,0,0.2-0.1,0.2-0.3c0-0.5-1.2-3.2-1.2-4.2c0.6,0.3,0.9-0.6,1-0.9
							c0.8,0.4,1,7.5,1.6,7.8c0.3,0.1,0.4-0.4,0.4-0.5c1-3.2,1-6.3,0.9-7.4c-0.1-1.6-0.2-3.1-0.6-4.4c-0.2-0.8-0.7-2.5-1.8-2.8
							c-0.5-0.1-0.9,0.4-0.9,0.8c0,0.4,0.3,0.6,0.2,0.9c-0.1,0.2-0.3,0.5-0.3,0.8s0.2,0.4,0.1,0.7c-0.3-0.1-0.5,0.3-1.1,0.1
							c0.4-0.2,0.4-1.2-0.1-1.4c-0.1,0-0.1,0-0.1-0.1c0,0,0.1-0.1,0.2-0.3c0.3-0.5,0.3-1,0-1.3c0.2,0,0.4-0.3,0.4-0.6l0,0v0l0,0
							c0-0.1,0-0.3,0.1-0.5c0-0.1,0-0.1-0.1-0.2c-0.1,0-0.1,0-0.2,0.1c-0.1,0.2-0.4,0.1-0.3-0.1c0-0.1,0-0.1-0.1-0.2
							c-0.1,0-0.1,0-0.2,0.1C31.1,9.3,30.9,9.2,31,9c0-0.1,0-0.1-0.1-0.2c-0.1,0-0.1,0-0.2,0.1c-0.1,0.2-0.4,0.1-0.3-0.1
							c0-0.1,0-0.1-0.1-0.2c-0.1,0-0.1,0-0.2,0.1c-0.1,0.2-0.2,0.3-0.3,0.4c-0.2,0-0.2,0.3-0.1,0.5C29.3,9.5,29,9.8,29,10.1h0
							c-0.4,0-0.7,0.2-0.7,0.6c0,0.2,0.2,0.4,0.3,0.4c0,0,0-0.2,0.2-0.2c0.2,0,0.4,0.1,0.5,0.3c0,0.2-0.1,0.7,0.5,0.7
							c0,0,0,0.1,0,0.2c-0.2,0-0.3,0-0.5,0c-0.4,0.1-0.9,0.3-1,0.7c0,0.1,0,0.2,0,0.3c0,0.1,0.1,0.2,0.1,0.3c0,0.1-0.1,0.1-0.1,0.2
							c-0.2,0.2-0.5,0.3-0.7,0.3c-0.3,0-0.6-0.2-0.7-0.3c-0.4-0.5,0.1-1.4,0.1-1.8c0-0.9-1.1-0.4-1.6-0.1c-0.5,0.3-1,0.7-1.3,1.2
							c-0.2,0.2-0.4,0.6-0.5,0.8c0,0.1-0.1,0.1-0.1,0.1c0.2,0.1,0.6,0.3,1,0.3c0,0,0.6,0.1,1.1-0.3c0,0,0.1-0.1,0.1-0.1
							c0.1,0,0.1,0,0.2,0.1c0,0,0.1,0.1,0.1,0.1c0,0,0.1,0.1,0.1,0.1c0,0,0,0,0.1,0.1c0.1,0.1,0.1,0.1,0.2,0.2c0,0,0,0,0,0
							c0.1,0.1,0.2,0.1,0.3,0.2l0,0c0.1,0.1,0.2,0.1,0.2,0.2l0,0c0,0,0,0,0,0.1c0,0,0,0.1,0,0.1c0,0,0,0.1-0.1,0.1
							c-0.1,0.2-0.4,0.6-0.6,1c0.2,0.4,0.6,0.8,1.1,0.8c0.4,0,0.6-0.2,0.6-0.5c0,0,0,0,0,0c0,0,0.3,1.2,0.6,1.5
							c-0.3,0.1-0.7,0.6-0.5,1.8c-0.2-0.2-0.6-0.5-0.9-0.7c-0.1-0.3-0.4-0.8-1-0.9c0.1,0.3,0.2,0.6,0.5,1c0,0,0.4,0.8,0.3,1.6
							c0.3-0.3,0.2-1.1,0.2-1.1c0,0,0,0,0.1,0c0.1,0,0.3,0.5,0.8,0.7c0.6,1.1,1.4,1.8,2.1,2.2c0,0.3,0,0.9-0.1,0.9
							c-0.5,0.1-1-0.3-1.5-0.2c0,0-0.1,0-0.1,0c-2.1-1-4.8,1.1-5.3,1.6c-0.2,0.2-0.5-0.1-0.5-0.1c-0.2-0.2-0.4-0.3-0.6-0.3
							c-0.2,0-0.4,0.1-0.6,0.3c0,0-0.3,0.3-0.5,0.1c-0.4-0.4-2.9-2.3-4.9-1.7c0-0.1-0.3-0.2-0.4-0.2c-0.2,0-0.3-0.2-0.4-0.2
							c-0.2-0.1-0.6,0-0.8-0.1c-0.1,0-0.2-0.1-0.3-0.1c-0.3-0.2-0.7-0.4-0.9-0.7c0,0-0.1-0.2-0.1-0.2c-0.1-0.1-0.1-0.2-0.2-0.4
							c-0.1-0.4,0.1-0.8,0.1-1.2c0-0.3,0-0.3,0.1-0.6c1.3-0.4,1.8-1.4,2.1-1.9c0,0,0.1-0.2,0.1-0.2c0.1,0,0.1,0,0.2,0
							c0.5,0,0.9-0.3,1.4-0.2c0,0,0.1,0.3,0.4,0.4c0,0.4,0,0.7,0.2,1c0,0,0.1,0.1,0.1,0.1c0.2-0.6,0.3-1.1,0.3-1.3c0,0,0-0.1,0-0.1
							c-0.1-0.6-0.4-0.8-0.7-1c-0.1-0.1-0.3-0.1-0.4-0.2c-0.2-0.1-0.4-0.3-0.5-0.5c0,0,0.1-0.1,0.1-0.1c0.4-0.4,0.5-0.9,0.7-1.5
							c0.3-0.4,1-0.2,1.3-0.2c0.1,0,0.2,0,0.3,0.1c0.1,0.1,0.1,0.2,0.2,0.2c0.1,0.1,0.3,0,0.4,0c0,0.1,0.1,0.1,0.1,0.2
							c0,0,0,0.1,0.1,0.1c0.4,0,0.8-0.2,1-0.3c0,0,0,0-0.1-0.1c-0.2-0.2-0.4-0.4-0.6-0.5c-0.3-0.1-0.3-0.3-0.6-0.4
							c-0.1,0-0.3-0.1-0.4,0c-0.6,0.1-1-0.1-1.6-0.2c-0.5,0-0.5,0.3-0.8,0.6c-0.1,0.1-0.2,0.3-0.3,0.3c-0.1,0.1-0.3,0.1-0.5,0.3
							l-0.1-0.2c-0.1-0.2-0.1-0.4-0.2-0.6c-0.3-0.5-0.6-0.8-1.3-1c-0.1-0.1-0.1-0.1-0.2-0.1c-0.1-0.1,0-0.2,0-0.2
							c0.2-0.1,0.5-0.1,0.7-0.2c0.5-0.2,0.3-0.7,0.1-0.7c-0.3-0.1-0.7-0.2-0.8-0.2c-0.1-0.1-0.3-0.5-0.6-0.6
							c-0.2-0.1-0.1-0.4-0.4-0.5c-0.1,0-0.2,0-0.4,0.1c0-0.1-0.1-0.5-0.3-0.6c-0.2-0.1-0.2,0.1-0.2,0.2c0,0.1,0.3,0.2,0.3,0.6
							c0,0-0.1,0.1-0.1,0.1c0-0.2-0.1-0.4-0.3-0.5c-0.2-0.1-0.2,0.1-0.2,0.1c0,0.1,0.2,0.2,0.3,0.5c-0.1,0-0.1,0.1-0.1,0.1
							C11.2,10,11.1,9.8,11,9.8c-0.1,0-0.3,0-0.2,0.2c0.1,0.2,0.3,0.3,0.5,0.3c0,0-0.1,0.1-0.1,0.1c-0.4-0.1-0.5-0.3-0.6-0.4
							c-0.1,0-0.3,0-0.2,0.2c0.1,0.3,0.6,0.4,0.6,0.4C11,10.7,11,10.8,11,10.9c-0.3,0-0.9,0.1-0.8,0.5c0.1,0.1,0.5-0.2,0.8-0.1
							c0.2,0.4,0.6,0.4,0.7,0.4c0.1,0.1,0.1,0.3,0.2,0.4c0.1,0.3,0.3,0.5,0.5,0.8c0.2,0.3,0.4,0.6,0.6,0.9c0,0.1,0.1,0.1,0,0.3
							c-0.2,0.4-0.9,0.8-1.2,1.1s-3,2.3-3.3,3.2c-0.1,0.2-0.1,0.5-0.1,0.7c-0.2,0.1-0.5,0.2-0.6,0.1c-0.2-0.3,0.2-0.5,0.1-0.8
							c0-0.1-0.2-0.2-0.3-0.1c-0.7,0.5-0.3,1.3,0.1,1.5c0.5,0.2,0.5-0.3,0.9-0.1c0.1,0,0.9,0.8,0.8,1.4c0,0,0,0.1-0.1,0.1
							c-0.2,0.2-0.5,0.4-0.7,0.6c-0.4,0.3,0.4,2,0.4,3c-0.1,0.3,0.3,0.3,0.5,0.9c-0.1,0-0.3,0.1-0.4,0.2c0,0-0.1,0.1-0.1,0.3
							c0,0.2,0.2,0.4,0.4,0.4s0.4-0.2,0.4-0.4c0,0,0,0,0-0.1c0.1,0,0.2,0,0.4,0.1l0.4,0.2c0,0-1.4,1.2-3.6,0.5c0,0-1-0.3-0.7-1.2
							c0,0,0.1-0.1,0.2-0.2c0,0.1,0.1,0.2,0.2,0.3c0.1,0.1,0.2,0.1,0.3,0.1c0.3,0,0.5-0.2,0.5-0.5c0-0.1-0.1-0.3-0.1-0.4
							c0,0,0,0-0.1-0.1l0,0c0,0,0,0,0,0c-0.2-0.1-0.4-0.2-0.7-0.1c0,0-1,0.3-0.6,1.3c0,0-0.7-0.1-0.9,0.1c0,0-0.1,0.1-0.1,0.3v0v0
							c0,0.1,0,0.1,0.1,0.2C5,26.9,5.1,27,5.2,27c0.1,0,0.2-0.1,0.3-0.1l0,0c0,0,0.1-0.1,0.2,0c1.5,1.5,3.9,0.9,5.3-0.1
							c0,0,0.7-0.8,1.6-1.2c0.3,0.1,0.7,0.2,1,0.4c0,0.5,0.1,1.2,0.6,2c0,0-0.4,0.7-1,0.3c0,0-0.5-0.4-0.1-0.8c0,0,0.3-0.2,0.4,0.1
							c-0.1,0-0.3,0.1-0.3,0.3s0.1,0.3,0.3,0.3c0.1,0,0.3-0.1,0.3-0.2c0-0.1,0-0.4-0.2-0.6c0,0-0.2-0.2-0.6-0.2
							c-0.6,0.1-0.9,1.3,0.2,1.8c0,0,0.9,0.4,1.3-0.3c0,0,0-0.1,0.2,0.1c0.9,0.9,3,0.6,3.8,0c0,0,0.2-0.1,0.4-0.2
							c0,0.4,0.3,0.6,0.6,0.6c0.4,0,0.6-0.3,0.6-0.6c0-0.3-0.2-0.6-0.5-0.6c0,0-0.4-0.1-1,0.2c0,0-0.6,0.4-0.6,0.3
							c0.2-0.3,0.4-0.8,0.4-1.3c0.9,0.1,1.8,0.2,2.8,0.2c0,0.3,0,0.6-0.2,0.9c0,0-0.3,0.1-0.4,0.4c0,0,0,0.2,0.3,0.4
							c0,0,0.2,0.2,0.3,0.4c0,0,0,0.3,0.4,0.3c0,0,0,0,0.1,0c0,0,0,0,0.1,0c0.4,0,0.4-0.3,0.4-0.3c0.1-0.2,0.3-0.4,0.3-0.4
							c0.3-0.2,0.3-0.4,0.3-0.4c0-0.2-0.4-0.4-0.4-0.4c-0.1-0.3-0.1-0.6-0.2-0.9c1,0,1.9-0.1,2.8-0.2c0.1,0.5,0.2,0.9,0.4,1.3
							c0,0.1-0.6-0.3-0.6-0.3c-0.6-0.4-1-0.3-1-0.2c-0.3,0-0.5,0.3-0.5,0.6c0,0.4,0.3,0.6,0.6,0.6c0.4,0,0.6-0.3,0.6-0.6
							c0.2,0.1,0.4,0.2,0.4,0.2c0.8,0.6,2.9,0.9,3.8,0c0.2-0.2,0.2-0.1,0.2-0.1c0.5,0.6,1.3,0.3,1.3,0.3c1.1-0.5,0.8-1.7,0.2-1.8
							c-0.4-0.1-0.6,0.2-0.6,0.2c-0.2,0.2-0.2,0.5-0.2,0.6c0,0.1,0.1,0.2,0.3,0.2s0.3-0.1,0.3-0.3c0-0.1-0.1-0.3-0.3-0.3
							c0.1-0.3,0.4-0.1,0.4-0.1c0.4,0.4-0.1,0.8-0.1,0.8c-0.6,0.4-1-0.3-1-0.3c0.5-0.8,0.6-1.5,0.6-2c0.3-0.1,0.7-0.2,1-0.4
							c0.8,0.5,1.6,1.2,1.6,1.2c1.3,1,3.8,1.7,5.3,0.1c0.1-0.1,0.2-0.1,0.2,0l0,0c0.1,0.1,0.2,0.1,0.3,0.1c0.1,0,0.2-0.1,0.3-0.2
							c0-0.1,0.1-0.1,0.1-0.2l0,0v0C38.7,26.4,38.6,26.3,38.6,26.3z M10.9,25.9c0,0-0.1,0.1-0.1,0c-0.8-1,0.4-2,0.8-1.4
							c0,0-0.4,0-0.4,0.3c0,0,0,0.3,0.4,0.3c0,0,0.6-0.1,0.4-0.7c0,0-0.1-0.3-0.4-0.4c0,0-1-0.3-1.4,0.6c0,0-0.1,0.2-0.1,0.5
							c-0.1-0.1-0.2-0.2-0.4-0.2c-0.2-0.2-0.5-1.8-0.3-2.6c1.5-0.3,2-1.6,2-1.9c0.3,0.1,0.5,0.5,0.5,0.6c0,0.2-0.1,0.4,0.1,0.6
							c0.2,0.2,0.6,0.5,0.8,0.6c0.1,0,1.2,0.9,1.3,0.9c0.2,0,0.3-0.1,0.4-0.1c0.1,0,0.1,0,0.1,0.1c0,0,0.1,0.1,0.2,0.2
							c-0.3,0.2-0.7,0.5-1.2,0.9C13.6,24.2,13.2,24.7,10.9,25.9z M14.6,26.9c0,0-0.1,0.4-0.2,0.5c0,0-0.3-0.6-0.4-1.4
							c0.3,0.1,0.5,0.2,0.8,0.2C14.7,26.5,14.6,26.7,14.6,26.9z M17.5,28.3c0,0-1.6,0.6-2.7-0.5c0,0,0.1-0.7,0.4-1.4
							c0.9,0.2,1.8,0.4,2.7,0.5C17.9,27.5,17.8,28.3,17.5,28.3z M16,25.3c0.3-0.3,0.7-0.5,1.2-0.5c0,0,0.7,0,0.8,0.9
							C17.3,25.5,16.6,25.4,16,25.3z M17.5,24.3c-0.1,0-1.1,0.1-2,0.9c-0.5-0.1-0.9-0.2-1.2-0.3c0.1-0.1,0.1-0.3,0.2-0.4
							c0,0,1.3-1.6,3.7-0.7C18.4,23.8,18.2,24.1,17.5,24.3z M18.6,25.7c0.1-1,0.2-1.8,0.5-1.8c0,0,0.3,0,0.4,0.2
							c0.3,0.4,1.1,0.9,1.5,1.7C20.2,25.9,19.4,25.8,18.6,25.7z M22.4,25.9c0.4-0.8,1.2-1.3,1.5-1.7c0.2-0.2,0.4-0.2,0.4-0.2
							c0.4,0,0.4,0.8,0.5,1.8C24.1,25.8,23.3,25.9,22.4,25.9z M25.2,23.7c2.4-0.9,3.7,0.7,3.7,0.7c0.1,0.1,0.2,0.3,0.2,0.4
							c-0.3,0.1-0.8,0.2-1.2,0.3c-0.9-0.8-1.9-0.9-2-0.9C25.3,24.1,25.1,23.8,25.2,23.7z M26.3,24.8c0.5,0,0.9,0.2,1.2,0.5
							c-0.6,0.1-1.3,0.3-2,0.4C25.6,24.8,26.3,24.8,26.3,24.8z M26,28.3c-0.3,0-0.4-0.8-0.5-1.4c0.9-0.1,1.9-0.3,2.7-0.5
							c0.3,0.7,0.4,1.4,0.4,1.4C27.5,29,26,28.3,26,28.3z M29.1,27.4c-0.1-0.1-0.2-0.5-0.2-0.5c-0.1-0.2-0.1-0.4-0.2-0.6
							c0.3-0.1,0.5-0.2,0.8-0.2C29.4,26.9,29.1,27.4,29.1,27.4z"/>
					</g>
				</g>
			</g>
		</g>
	</g>
</g>
</svg>
